PathFileType	4	(X/Y/Z)	TVC_41_Cal_03_0_static_RCNL2025.trc
DataRate	CameraRate	NumFrames	NumMarkers	Units	OrigDataRate	OrigDataStartFrame	OrigNumFrames
100	100	9	27	mm	100	30	234
Frame#	Time	R_Shoulder			L_Shoulder			C7			J_Notch			R_Elbow			L_Elbow			R_Wrist			L_Wrist			R_Asis			L_Asis			R_Psis			L_Psis			Sacral			Thoracic			Sternum			R_Thigh_Lateral			R_Knee_Lateral			R_Shank_Lateral			R_Ankle_Lateral			R_Heel			R_Toe			L_Thigh_Lateral			L_Knee_Lateral			L_Shank_Lateral			L_Ankle_Lateral			L_Heel			L_Toe		
		X1	Y1	Z1	X2	Y2	Z2	X3	Y3	Z3	X4	Y4	Z4	X5	Y5	Z5	X6	Y6	Z6	X7	Y7	Z7	X8	Y8	Z8	X9	Y9	Z9	X10	Y10	Z10	X11	Y11	Z11	X12	Y12	Z12	X13	Y13	Z13	X14	Y14	Z14	X15	Y15	Z15	X16	Y16	Z16	X17	Y17	Z17	X18	Y18	Z18	X19	Y19	Z19	X20	Y20	Z20	X21	Y21	Z21	X22	Y22	Z22	X23	Y23	Z23	X24	Y24	Z24	X25	Y25	Z25	X26	Y26	Z26	X27	Y27	Z27
30	0.29000000	-281.330261	1276.041870	-68.504715	-289.140503	1249.045044	-404.254730	-357.669220	1310.212891	-233.845856	-222.211090	1221.141479	-229.197144	-246.480484	985.387390	-12.691772	-301.224762	950.852966	-444.199982	-186.922478	782.943085	-26.613986	-227.243103	757.739105	-452.482956	-222.525421	859.154297	-86.708809	-224.655472	859.419250	-331.424011	-358.543854	882.096252	-153.821106	-395.535950	883.844666	-242.104980	-377.039902	882.970459	-197.963043	-361.729218	1013.774536	-216.311737	-171.593613	1045.611206	-228.150818	-271.278076	640.464966	6.318849	-262.555664	412.743958	-58.059921	-296.466309	286.355377	-1.174032	-282.115448	73.490311	-65.059036	-317.857941	45.811901	-121.312019	-172.916199	45.534023	-40.240250	-315.959412	593.324402	-417.159088	-309.000427	409.277191	-339.711090	-313.074341	269.428711	-378.960632	-337.899017	66.853920	-300.339539	-376.190491	43.827446	-258.272217	-212.566971	39.422626	-289.412872
31	0.30000000	-281.401825	1276.046143	-68.451958	-289.148285	1248.991089	-404.261108	-357.813354	1310.261475	-233.839706	-222.244354	1221.174316	-229.183746	-246.464706	985.380798	-12.709397	-301.315552	950.804810	-444.224243	-186.872238	783.007690	-26.550196	-227.287712	757.769867	-452.475723	-223.279648	859.431213	-86.676819	-224.620773	859.497192	-331.484711	-358.468170	881.911011	-153.679321	-395.557983	883.891174	-242.103592	-377.013077	882.901093	-197.891457	-361.745605	1013.718445	-216.292374	-171.696182	1045.662720	-228.181732	-271.189941	640.729309	6.350199	-262.568634	412.738190	-58.047871	-296.452972	286.351746	-1.180912	-282.188568	73.448135	-65.109993	-317.880127	45.850121	-121.291389	-172.895035	45.463528	-40.106503	-316.011169	593.364990	-417.159302	-308.901794	409.304596	-339.679016	-312.994202	269.560211	-378.856842	-337.786469	66.768501	-300.368805	-376.113342	43.845242	-258.320251	-212.522614	39.413109	-289.464752
32	0.31000000	-281.530609	1276.097534	-68.413383	-289.292389	1249.010254	-404.261780	-357.853210	1310.319458	-233.810333	-222.250916	1221.218384	-229.134933	-246.716293	985.469482	-12.277596	-301.403107	950.866943	-444.186218	-187.020332	782.984772	-26.568908	-227.461662	757.768829	-452.467285	-223.502045	859.370300	-86.594116	-224.643631	859.482666	-331.377747	-358.428741	881.947327	-153.677399	-395.553467	883.872009	-242.103943	-376.991104	882.909668	-197.890671	-361.809418	1013.752625	-216.186844	-171.790390	1045.711426	-227.998230	-271.138885	640.758301	6.405485	-262.587158	412.753479	-57.994843	-296.372498	286.303558	-1.253198	-282.190033	73.482330	-65.135963	-317.921295	45.880413	-121.276688	-172.877762	45.482773	-40.280476	-315.925903	593.366028	-417.148834	-308.908051	409.366974	-339.641785	-312.896576	269.468750	-378.863220	-337.725861	66.651573	-300.249023	-376.078064	43.780636	-258.335571	-212.530884	39.428051	-289.428101
33	0.32000000	-281.604309	1276.064209	-68.389893	-289.325500	1248.995239	-404.235413	-357.990845	1310.279663	-233.810303	-222.369400	1221.287964	-229.144211	-246.716202	985.518066	-12.631687	-301.571686	950.846863	-444.217651	-187.019768	782.986084	-26.521018	-227.601852	757.769989	-452.469803	-223.602020	859.441101	-86.519417	-224.520172	859.538391	-331.373291	-358.567841	882.006653	-153.693924	-395.630920	883.840332	-242.050781	-377.099380	882.923492	-197.872353	-361.916992	1013.790771	-216.247498	-171.868042	1045.713989	-227.907486	-271.032776	640.871033	6.313557	-262.575134	412.759766	-58.011909	-296.470490	286.317596	-1.270628	-282.140808	73.475914	-65.043243	-317.920715	45.895767	-121.260918	-172.928879	45.525452	-40.246361	-315.931732	592.701355	-417.188721	-308.770752	409.302094	-339.574585	-312.879913	269.368164	-378.862152	-337.813690	66.766846	-300.320740	-376.071808	43.827984	-258.328644	-212.579239	39.430313	-289.389404
34	0.33000000	-281.761597	1276.074707	-68.371384	-289.416809	1248.989990	-404.198090	-358.005280	1310.279053	-233.830154	-222.475922	1221.178833	-229.103088	-246.740402	985.460388	-12.649688	-301.702667	950.885681	-444.103333	-187.034004	783.020569	-26.479965	-227.696037	757.743896	-452.425766	-223.588577	859.419434	-86.487869	-224.594040	859.494446	-331.417450	-358.622894	882.063354	-153.723816	-395.611572	883.750305	-242.089951	-377.117233	882.906830	-197.906883	-361.956665	1013.675842	-216.221313	-172.028946	1045.699097	-227.875671	-271.094482	640.782471	6.432652	-262.536987	412.738342	-57.993454	-296.581116	286.280396	-1.234213	-282.141022	73.466103	-65.003448	-317.886353	45.917641	-121.267395	-172.883270	45.561565	-40.146286	-315.699768	593.255981	-417.097931	-308.789124	409.312286	-339.586792	-312.753937	269.356476	-378.823303	-337.801819	66.836311	-300.355316	-376.053345	43.796604	-258.313354	-212.631195	39.430820	-289.376373
35	0.34000000	-281.828522	1276.100098	-68.375328	-289.479919	1248.993652	-404.213593	-358.130188	1310.180054	-233.820267	-222.571014	1221.327271	-229.160187	-246.863403	985.610168	-12.199637	-301.851166	950.937927	-444.140930	-187.161980	783.049164	-26.586150	-227.854561	757.723267	-452.500153	-222.768692	859.159424	-86.570427	-224.645798	859.511108	-331.397675	-358.533112	881.616577	-153.461411	-395.675568	883.712341	-242.104080	-377.104340	882.664459	-197.782745	-361.919739	1013.664490	-216.244156	-172.075089	1045.705322	-227.846237	-271.099213	640.829224	6.343904	-262.511780	412.712189	-58.009422	-296.541779	286.282990	-1.161764	-282.167023	73.483315	-64.972618	-317.773590	45.851635	-121.303261	-172.866150	45.510494	-40.287346	-315.658478	593.537781	-417.125610	-308.756805	409.323486	-339.560150	-312.665771	269.364227	-378.707123	-337.826508	66.889816	-300.345062	-376.042664	43.820484	-258.293335	-212.592407	39.496647	-289.378601
36	0.35000000	-281.917297	1276.087646	-68.367661	-289.576385	1248.999146	-404.212738	-358.218414	1310.179565	-233.774521	-222.646576	1221.250000	-229.050446	-246.743835	985.554626	-12.483788	-301.914856	950.788696	-444.177979	-187.124054	783.141968	-26.585315	-228.028229	757.714661	-452.453796	-222.668320	859.141968	-86.573311	-224.706528	859.459106	-331.298004	-358.523346	881.835815	-153.683884	-395.686462	883.718872	-242.121582	-377.104904	882.777344	-197.902733	-361.988159	1013.674988	-216.206100	-172.271606	1045.649902	-227.804199	-271.363708	640.513550	6.367948	-262.520111	412.705841	-57.990192	-296.432678	286.240601	-1.221650	-282.164001	73.502525	-64.965378	-317.860870	45.864502	-121.296539	-172.868027	45.599213	-40.256073	-315.535339	593.338440	-417.122864	-308.698547	409.351746	-339.560852	-312.604828	269.363037	-378.773895	-337.842651	66.902115	-300.366547	-376.133942	43.871819	-258.296326	-212.574387	39.480839	-289.441956
37	0.36000000	-281.963165	1276.064819	-68.358727	-289.616547	1248.988159	-404.249329	-358.355865	1310.213989	-233.792084	-222.670731	1221.225342	-229.019379	-246.839844	985.619202	-12.082170	-302.076599	950.766785	-444.093903	-187.169273	783.068359	-26.465090	-228.289459	757.618042	-452.662292	-222.796173	859.196655	-86.622635	-224.633698	859.475708	-331.206116	-358.708069	881.898682	-153.751297	-395.655396	883.666260	-242.150894	-377.181732	882.782471	-197.951096	-361.971619	1013.626221	-216.231171	-172.265167	1045.692749	-227.847153	-271.273163	640.747009	6.538140	-262.553558	412.725555	-57.942070	-296.476929	286.312378	-1.265423	-282.191315	73.419334	-65.121857	-317.942627	45.865032	-121.336929	-172.927017	45.519199	-40.225464	-315.506165	593.206238	-417.080536	-308.665161	409.331238	-339.580170	-313.317474	269.141724	-378.170471	-337.720032	66.907303	-300.562347	-376.205383	43.859516	-258.247559	-212.580124	39.513191	-289.389801
38	0.37000000	-282.145935	1276.123047	-68.330544	-289.737396	1248.933838	-404.233704	-358.445465	1310.204346	-233.747437	-222.771027	1221.335205	-229.091339	-247.008621	985.520325	-12.427954	-302.118103	950.810181	-444.168152	-187.223450	783.134308	-26.566415	-228.348579	757.627411	-452.488602	-222.933060	859.235718	-86.515915	-224.541306	859.508484	-331.368439	-358.823578	881.919800	-153.849014	-395.713470	883.675537	-242.232758	-377.268524	882.797668	-198.040886	-362.124054	1013.601074	-216.196396	-172.319122	1045.693237	-227.752914	-270.999634	641.019897	6.112716	-262.638153	412.757904	-57.953007	-296.571869	286.285156	-1.237074	-282.222565	73.369400	-65.139153	-317.860870	45.862244	-121.346260	-172.994339	45.518940	-40.254955	-315.447754	593.273560	-417.063446	-308.626740	409.297516	-339.549194	-313.450653	269.100128	-377.998596	-337.676483	66.864082	-300.592102	-376.130280	43.849613	-258.277863	-212.573029	39.481842	-289.404419
